<svg xmlns="http://www.w3.org/2000/svg" width="880" height="284" viewBox="0 0 880 284" font-family="system-ui, -apple-system, 'Segoe UI', sans-serif">
<defs><marker id="ah" viewBox="0 0 8 8" markerWidth="7" markerHeight="7" refX="6.5" refY="4" orient="auto"><path d="M0,0 L8,4 L0,8 z" fill="#888888"/></marker></defs>
<rect width="880" height="284" rx="12" fill="#000000"/>
<text x="440.0" y="32" text-anchor="middle" font-size="21" font-weight="700" fill="#ffffff">The Stack Shuffling Problem</text>
<text x="440.0" y="54" text-anchor="middle" font-size="11.5" fill="#bbbbbb">find a trace of EVM stack ops that turns the source stack into the target stack</text>
<g font-family="ui-monospace, 'SF Mono', Menlo, monospace">
<rect x="44" y="198" width="62" height="30" rx="5" fill="#222222" stroke="#444444" stroke-width="1.6"/><text x="75.0" y="218" text-anchor="middle" font-size="13" fill="#dddddd">a</text>
<rect x="44" y="162" width="62" height="30" rx="5" fill="#222222" stroke="#444444" stroke-width="1.6"/><text x="75.0" y="182" text-anchor="middle" font-size="13" fill="#dddddd">b</text>
<rect x="44" y="126" width="62" height="30" rx="5" fill="#222222" stroke="#444444" stroke-width="1.6"/><text x="75.0" y="146" text-anchor="middle" font-size="13" fill="#dddddd">c</text>
</g>
<line x1="40" y1="233" x2="110" y2="233" stroke="#444444" stroke-width="2.5" stroke-linecap="round"/>
<text x="34" y="218" text-anchor="end" font-size="9.5" fill="#888888" font-family="ui-monospace, 'SF Mono', Menlo, monospace">0</text>
<text x="34" y="182" text-anchor="end" font-size="9.5" fill="#888888" font-family="ui-monospace, 'SF Mono', Menlo, monospace">1</text>
<text x="34" y="146" text-anchor="end" font-size="9.5" fill="#888888" font-family="ui-monospace, 'SF Mono', Menlo, monospace">2</text>
<text x="75.0" y="252" text-anchor="middle" font-size="11" font-weight="700" fill="#bbbbbb">source</text>
<g font-family="ui-monospace, 'SF Mono', Menlo, monospace">
<rect x="214" y="198" width="62" height="30" rx="5" fill="#222222" stroke="#444444" stroke-width="1.6"/><text x="245.0" y="218" text-anchor="middle" font-size="13" fill="#dddddd">a</text>
<rect x="214" y="162" width="62" height="30" rx="5" fill="#222222" stroke="#444444" stroke-width="1.6"/><text x="245.0" y="182" text-anchor="middle" font-size="13" fill="#dddddd">c</text>
<rect x="214" y="126" width="62" height="30" rx="5" fill="#17313d" stroke="#58c4dd" stroke-width="1.6"/><text x="245.0" y="146" text-anchor="middle" font-size="13" fill="#dddddd">b</text>
</g>
<line x1="210" y1="233" x2="280" y2="233" stroke="#444444" stroke-width="2.5" stroke-linecap="round"/>
<g font-family="ui-monospace, 'SF Mono', Menlo, monospace">
<rect x="384" y="198" width="62" height="30" rx="5" fill="#222222" stroke="#444444" stroke-width="1.6"/><text x="415.0" y="218" text-anchor="middle" font-size="13" fill="#dddddd">a</text>
<rect x="384" y="162" width="62" height="30" rx="5" fill="#222222" stroke="#444444" stroke-width="1.6"/><text x="415.0" y="182" text-anchor="middle" font-size="13" fill="#dddddd">c</text>
</g>
<line x1="380" y1="233" x2="450" y2="233" stroke="#444444" stroke-width="2.5" stroke-linecap="round"/>
<g font-family="ui-monospace, 'SF Mono', Menlo, monospace">
<rect x="554" y="198" width="62" height="30" rx="5" fill="#222222" stroke="#444444" stroke-width="1.6"/><text x="585.0" y="218" text-anchor="middle" font-size="13" fill="#dddddd">a</text>
<rect x="554" y="162" width="62" height="30" rx="5" fill="#222222" stroke="#444444" stroke-width="1.6"/><text x="585.0" y="182" text-anchor="middle" font-size="13" fill="#dddddd">c</text>
<rect x="554" y="126" width="62" height="30" rx="5" fill="#17313d" stroke="#58c4dd" stroke-width="1.6"/><text x="585.0" y="146" text-anchor="middle" font-size="13" fill="#dddddd">c</text>
</g>
<line x1="550" y1="233" x2="620" y2="233" stroke="#444444" stroke-width="2.5" stroke-linecap="round"/>
<g font-family="ui-monospace, 'SF Mono', Menlo, monospace">
<rect x="724" y="198" width="62" height="30" rx="5" fill="#1c2a16" stroke="#83c167" stroke-width="1.6"/><text x="755.0" y="218" text-anchor="middle" font-size="13" fill="#dddddd">a</text>
<rect x="724" y="162" width="62" height="30" rx="5" fill="#1c2a16" stroke="#83c167" stroke-width="1.6"/><text x="755.0" y="182" text-anchor="middle" font-size="13" fill="#dddddd">c</text>
<rect x="724" y="126" width="62" height="30" rx="5" fill="#1c2a16" stroke="#83c167" stroke-width="1.6"/><text x="755.0" y="146" text-anchor="middle" font-size="13" fill="#dddddd">c</text>
<rect x="724" y="90" width="62" height="30" rx="5" fill="#1c2a16" stroke="#83c167" stroke-width="1.6"/><text x="755.0" y="110" text-anchor="middle" font-size="13" fill="#f7d96f">42</text>
</g>
<line x1="720" y1="233" x2="790" y2="233" stroke="#444444" stroke-width="2.5" stroke-linecap="round"/>
<text x="796" y="218" text-anchor="start" font-size="9.5" fill="#888888" font-family="ui-monospace, 'SF Mono', Menlo, monospace">0</text>
<text x="796" y="182" text-anchor="start" font-size="9.5" fill="#888888" font-family="ui-monospace, 'SF Mono', Menlo, monospace">1</text>
<text x="796" y="146" text-anchor="start" font-size="9.5" fill="#888888" font-family="ui-monospace, 'SF Mono', Menlo, monospace">2</text>
<text x="796" y="110" text-anchor="start" font-size="9.5" fill="#888888" font-family="ui-monospace, 'SF Mono', Menlo, monospace">3</text>
<text x="755.0" y="252" text-anchor="middle" font-size="11" font-weight="700" fill="#83c167">target</text>
<line x1="112" y1="160" x2="206" y2="160" stroke="#888888" stroke-width="1.4" marker-end="url(#ah)"/>
<text x="160.0" y="151" text-anchor="middle" font-size="12.5" fill="#58c4dd" font-family="ui-monospace, 'SF Mono', Menlo, monospace">swap1</text>
<text x="160.0" y="176" text-anchor="middle" font-size="9.5" fill="#888888">expose b</text>
<line x1="282" y1="160" x2="376" y2="160" stroke="#888888" stroke-width="1.4" marker-end="url(#ah)"/>
<text x="330.0" y="151" text-anchor="middle" font-size="12.5" fill="#58c4dd" font-family="ui-monospace, 'SF Mono', Menlo, monospace">pop</text>
<text x="330.0" y="176" text-anchor="middle" font-size="9.5" fill="#888888">remove b</text>
<line x1="452" y1="160" x2="546" y2="160" stroke="#888888" stroke-width="1.4" marker-end="url(#ah)"/>
<text x="500.0" y="151" text-anchor="middle" font-size="12.5" fill="#58c4dd" font-family="ui-monospace, 'SF Mono', Menlo, monospace">dup1</text>
<text x="500.0" y="176" text-anchor="middle" font-size="9.5" fill="#888888">duplicate c</text>
<line x1="622" y1="160" x2="716" y2="160" stroke="#888888" stroke-width="1.4" marker-end="url(#ah)"/>
<text x="670.0" y="151" text-anchor="middle" font-size="12.5" fill="#58c4dd" font-family="ui-monospace, 'SF Mono', Menlo, monospace">push 42</text>
<text x="670.0" y="176" text-anchor="middle" font-size="9.5" fill="#888888">generate 42</text>
<text x="440.0" y="272" text-anchor="middle" font-size="10.5" fill="#888888">a is retained · b is removed · c is duplicated · 42 is generated</text>
</svg>